<svg width="180" height="188" viewBox="0 0 180 188" fill="none" xmlns="http://www.w3.org/2000/svg">
<path d="M154.775 42.914L149.823 47.062L153.971 52.0142L158.923 47.8663L154.775 42.914Z" fill="white"/>
<path d="M177.96 93.5072C177.96 112.167 171.82 129.417 161.42 143.437C158.97 146.737 156.27 149.867 153.37 152.787C149.43 156.757 145.1 160.337 140.44 163.477C131.74 169.367 121.9 173.737 111.29 176.187C110.47 173.157 109.88 168.897 110.6 163.657C127.59 158.647 142 147.617 151.35 133.017C158.6 121.697 162.81 108.227 162.81 93.7872C162.81 68.1872 149.6 45.6772 129.63 32.6872L132.76 27.2372L127.34 24.1172L130.85 17.8672C131.8 18.3472 132.74 18.8472 133.67 19.3572L132.14 22.3172L137.87 25.2872L139.22 22.6872C142.04 24.5272 144.75 26.5372 147.33 28.6772L143.31 32.7072L147.89 37.2672L152.14 32.9972C152.86 33.6972 153.58 34.4072 154.28 35.1372L156.73 33.0072L160.97 37.8872L158.59 39.9572C161.17 43.0672 163.53 46.3672 165.64 49.8172L161.76 51.7172L164.61 57.5172L168.81 55.4572C170.01 57.8072 171.1 60.2172 172.08 62.6772C172.5 63.7172 172.89 64.7772 173.26 65.8372L172.01 66.1772L172.78 68.9972L170.02 69.7572L171.72 75.9872L175.85 74.8572C177.23 80.8672 177.96 87.0972 177.96 93.5072Z" fill="white"/>
<path d="M113.432 5.77191e-05L111.934 6.28369L118.218 7.78176L119.716 1.49813L113.432 5.77191e-05Z" fill="white"/>
<path d="M121.333 13.8817L119.001 19.9062L125.026 22.2377L127.357 16.2131L121.333 13.8817Z" fill="white"/>
<path d="M113.16 19.0674L106.83 17.8174L105.87 22.7074C107.99 23.1774 110.07 23.7374 112.12 24.3974L113.16 19.0674Z" fill="white"/>
<path d="M134.293 6.50567L131.318 12.2402L137.052 15.2151L140.027 9.4805L134.293 6.50567Z" fill="white"/>
<path d="M149.825 19.5877L145.687 24.5483L150.648 28.6866L154.786 23.726L149.825 19.5877Z" fill="white"/>
<path d="M164.897 28.6758L160.018 32.9097L164.251 37.7889L169.131 33.555L164.897 28.6758Z" fill="white"/>
<path d="M169.07 51.9675L174.72 49.1974L171.88 43.3975L166.08 46.2375L167.42 48.9575L168.92 52.0374L169.07 51.9675Z" fill="white"/>
<path d="M172.79 69.0173L173.73 72.4173L177.19 71.4673L179.95 70.7173L178.24 64.4873L173.26 65.8573L172.02 66.1973L172.79 69.0173Z" fill="white"/>
<path d="M17.1302 93.7975C17.1302 60.7375 39.1602 32.8175 69.3402 23.9275C70.0602 18.6875 69.4702 14.4275 68.6502 11.3975C52.3702 15.1675 37.8602 23.4375 26.5702 34.8075C23.6602 37.7275 20.9702 40.8575 18.5102 44.1674C8.11022 58.1875 1.97021 75.4374 1.97021 94.0974C1.97021 100.497 2.70022 106.737 4.07022 112.737L8.20023 111.607L9.91022 117.837L7.15022 118.597L7.92021 121.417L6.67021 121.757C7.04021 122.827 7.43022 123.877 7.85022 124.927C8.83022 127.387 9.92022 129.797 11.1202 132.147L15.3302 130.087L18.1702 135.887L14.2902 137.787C16.4102 141.237 18.7602 144.537 21.3402 147.647L18.9602 149.717L23.1902 154.597L25.6402 152.467C26.3402 153.187 27.0502 153.897 27.7802 154.607L32.0302 150.337L36.6002 154.897L32.5802 158.927C35.1602 161.067 37.8702 163.077 40.6902 164.917L42.0402 162.317L47.7702 165.287L46.2402 168.247C47.1702 168.757 48.1102 169.257 49.0602 169.737L52.5702 163.487L47.1502 160.377L50.2802 154.927C30.3402 141.907 17.1302 119.397 17.1302 93.7975ZM25.1602 144.677L21.0102 139.727L25.9602 135.577L30.1102 140.527L25.1602 144.677Z" fill="white"/>
<path d="M61.7268 179.813L60.23 186.097L66.5143 187.594L68.011 181.31L61.7268 179.813Z" fill="white"/>
<path d="M54.9475 165.364L52.6167 171.39L58.6419 173.72L60.9727 167.695L54.9475 165.364Z" fill="white"/>
<path d="M66.79 168.527L73.12 169.777L74.09 164.887C71.97 164.417 69.89 163.857 67.84 163.197L66.79 168.527Z" fill="white"/>
<path d="M42.9039 172.396L39.9297 178.131L45.6642 181.105L48.6384 175.37L42.9039 172.396Z" fill="white"/>
<path d="M29.3243 158.909L25.186 163.87L30.1467 168.008L34.285 163.048L29.3243 158.909Z" fill="white"/>
<path d="M15.7158 149.813L10.8359 154.046L15.0692 158.926L19.9491 154.693L15.7158 149.813Z" fill="white"/>
<path d="M10.88 135.627L5.22998 138.397L8.06998 144.197L13.86 141.357L12.53 138.627L11.02 135.557L10.88 135.627Z" fill="white"/>
<path d="M7.16 118.577L6.22 115.177L2.76001 116.127L0 116.877L1.70001 123.107L6.68001 121.737L7.93001 121.397L7.16 118.577Z" fill="white"/>
<path d="M64.8701 60.7675H73.0201V52.6275H81.1601V43.2476H73.0201H64.8701V52.6275V60.7675Z" fill="white"/>
<path d="M81.16 52.6274H73.02V60.7675H81.16V52.6274Z" fill="white"/>
<path d="M56.7298 93.3374H48.5898V101.477H56.7298V93.3374Z" fill="white"/>
<path d="M56.7298 68.9072H48.5898V77.0472H56.7298V68.9072Z" fill="white"/>
<path d="M73.0101 93.3374H64.8701V101.477H73.0101V93.3374Z" fill="white"/>
<path d="M89.3002 77.0571H81.1602V85.1971H89.3002V77.0571Z" fill="white"/>
<path d="M89.3002 60.7676H81.1602V68.9076H89.3002V60.7676Z" fill="white"/>
<path d="M73.0101 77.0571H64.8701V85.1971H73.0101V77.0571Z" fill="white"/>
<path d="M73.0101 68.9072H64.8701V77.0472H73.0101V68.9072Z" fill="white"/>
<path d="M64.87 77.0571H56.73V85.1971H64.87V77.0571Z" fill="white"/>
<path d="M48.5798 77.0571H40.0698V85.1971H48.5798V77.0571Z" fill="white"/>
<path d="M48.5798 93.3374H40.0698V101.477H48.5798V93.3374Z" fill="white"/>
<path d="M56.7298 101.487H48.5898V110.297H56.7298V101.487Z" fill="white"/>
<path d="M64.87 101.487V93.3374H56.73V101.487V110.287H64.87V101.487Z" fill="white"/>
<path d="M89.3002 101.487H81.1602V110.297H89.3002V101.487Z" fill="white"/>
<path d="M73.0101 101.487H64.8701V110.297H73.0101V101.487Z" fill="white"/>
<path d="M81.16 101.487H73.02V110.297H81.16V101.487Z" fill="white"/>
<path d="M73.0101 110.287H64.8701V118.427H73.0101V110.287Z" fill="white"/>
<path d="M64.87 118.427H56.73V127.237H64.87V118.427Z" fill="white"/>
<path d="M73.0101 118.427H64.8701V127.237H73.0101V118.427Z" fill="white"/>
<path d="M81.16 118.427H73.02V127.237H81.16V118.427Z" fill="white"/>
<path d="M64.87 127.237H56.73V135.377H64.87V127.237Z" fill="white"/>
<path d="M64.87 135.377H56.73V144.177H64.87V135.377Z" fill="white"/>
<path d="M73.0101 135.377H64.8701V144.177H73.0101V135.377Z" fill="white"/>
<path d="M81.16 135.377H73.02V144.187H81.16V135.377Z" fill="white"/>
<path d="M110.51 109.627H102.37V117.767H110.51V109.627Z" fill="white"/>
<path d="M102.37 117.768V109.628H110.51V101.488H118.65V107.948C131.07 103.038 139.86 90.9375 139.86 76.7675C139.86 58.2575 124.85 43.2476 106.34 43.2476H105.58H97.4399H89.2999V52.6275H81.1599V60.7675H89.2999V68.9075H81.1599V77.0475H89.2999V85.1876H81.1599V77.0475H73.0199V85.1876H64.8799V93.3275H73.0199H81.1599V101.468H89.2999V110.278H94.9299L102.07 117.758H102.37V117.768ZM130.87 85.1975V93.3376H122.73V85.1975H114.59V77.0576H122.73V85.1975H130.87ZM122.73 60.7675H114.59V52.6275H122.73V60.7675ZM97.4499 93.3376H105.59V101.478H97.4499V93.3376Z" fill="white"/>
<path d="M118.66 109.627H110.52V117.767H118.66V109.627Z" fill="white"/>
<path d="M111.23 134.717V143.527H119.99L111.23 134.717Z" fill="white"/>
<path d="M118.66 117.768H110.52V126.578H110.68H118.66V117.768Z" fill="white"/>
<path d="M126.8 126.578V117.768H118.66V126.578H126.8Z" fill="white"/>
<path d="M102.37 126.577H108.72L102.37 120.677V126.577Z" fill="white"/>
<path d="M126.8 126.577H118.66V134.717H126.8V126.577Z" fill="white"/>
<path d="M134.94 126.577H126.8V134.717H134.94V126.577Z" fill="white"/>
<path d="M134.94 134.717H126.8V143.517H134.94V134.717Z" fill="white"/>
<path d="M126.8 134.717H118.66V134.877L126.8 143.527V134.717Z" fill="white"/>
<path d="M48.5798 52.6274H40.0698V60.7675H48.5798V52.6274Z" fill="white"/>
<path d="M64.87 43.2476H56.73V52.6275H64.87V43.2476Z" fill="white"/>
<path d="M122.73 52.6274H114.59V60.7675H122.73V52.6274Z" fill="white"/>
<path d="M122.73 77.0571H114.59V85.1971H122.73V77.0571Z" fill="white"/>
<path d="M130.87 85.1973H122.73V93.3373H130.87V85.1973Z" fill="white"/>
</svg>
